# xmcd
#
# Track frame offsets: 
#        150
#        20190
#        41497
#        61712
#        78947
#        91987
#        102322
#        139352
#        151665
#        164000
#        178857
#        195930
#        218677
#        230257
#        239417
#        252280
#
# Disc length: 3614 seconds
#
# Revision: 0
# Processed by: cddbd v1.5.2PL0 Copyright (c) Steve Scherf et al.
# Submitted via: ExactAudioCopy v0.95a4
#
DISCID=cf0e1c10
DTITLE=Paul Lamb and The King Snakes - I'm On A Roll
DYEAR=2005
DGENRE=Blues
TTITLE0=I'm on a roll
TTITLE1=Down the road
TTITLE2=Far far away
TTITLE3=Baby please don't go
TTITLE4=Calamari kid
TTITLE5=Get up
TTITLE6=Adopted child
TTITLE7=Going for it
TTITLE8=My baby don't love me no more
TTITLE9=You'd better mind
TTITLE10=Swingin
TTITLE11=A piece of mud
TTITLE12=My promise
TTITLE13=Raulin around
TTITLE14=Nomad blues
TTITLE15=Mr. R.C.Robinson
EXTD=
EXTT0=
EXTT1=
EXTT2=
EXTT3=
EXTT4=
EXTT5=
EXTT6=
EXTT7=
EXTT8=
EXTT9=
EXTT10=
EXTT11=
EXTT12=
EXTT13=
EXTT14=
EXTT15=
PLAYORDER=
